# xmcd
#
# Track frame offsets: 
#        150
#        9827
#        19762
#        31652
#        44180
#        54842
#        65340
#        79970
#        92837
#        103420
#        115104
#        125087
#
# Disc length: 1814 seconds
#
# Revision: 0
# Processed by: cddbd v1.5.2PL0 Copyright (c) Steve Scherf et al.
# Submitted via: ExactAudioCopy v0.99pb4
#
DISCID=9907140c
DTITLE=Various Artist - Country Gold - 50 Years of Country Hits: 1960-64
DYEAR=2003
DGENRE=Country
TTITLE0=Ned Miller - From A Jack To A King
TTITLE1=George Hamilton IV - Abilene
TTITLE2=Skeeter Davis - The End Of The World
TTITLE3=Hank Snow - I've Been Everywhere
TTITLE4=Hank Locklin - Please Help Me, I'm Falling
TTITLE5=Connie Smith - Once A Day
TTITLE6=Lorne Greene - Ringo
TTITLE7=Johnny Tillotson - It Keeps Right On A-Hurtin'
TTITLE8=Floyd Cramer - San Antonio Rose
TTITLE9=Porter Wagoner - Misery Loves Company
TTITLE10=Norma Jean - Go Cat Go
TTITLE11=Carl Belew - Hello Out There
EXTD=
EXTT0=
EXTT1=
EXTT2=
EXTT3=
EXTT4=
EXTT5=
EXTT6=
EXTT7=
EXTT8=
EXTT9=
EXTT10=
EXTT11=
PLAYORDER=
